<?xml version="1.0" encoding="utf-8"?>
<!-- Generator: Adobe Illustrator 16.0.0, SVG Export Plug-In . SVG Version: 6.00 Build 0)  -->
<!DOCTYPE svg PUBLIC "-//W3C//DTD SVG 1.1//EN" "http://www.w3.org/Graphics/SVG/1.1/DTD/svg11.dtd">
<svg version="1.1" xmlns="http://www.w3.org/2000/svg" xmlns:xlink="http://www.w3.org/1999/xlink" x="0px" y="0px" width="581.5px"
	 height="388px" viewBox="0 34.5 581.5 388" enable-background="new 0 34.5 581.5 388" xml:space="preserve">
<g id="Ebene_2">
	<g>
		<path d="M391.82,358.641c-0.797-0.924-1.82-1.781-3.106-2.527c-12.848-7.447,29.776-61.445,37.087-50.934
			c13.083-4.205,24.54-11.951,36.425-18.625c9.848-5.02,16.447-13.93,22.604-22.773c7.519-11.291,18.521-20.775,22.247-34.169
			c-26.082-1.221-52.211-1.326-78.305-2.162c4.147-44.753,8.785-89.461,13.912-134.122c5.259,1.925,10.772,2.993,16.145,4.539
			c1.691-14.098,2.67-28.278,4.462-42.367c13.001,6.223,23.911,15.825,36.293,23.059c17.077,11.461,34.549,22.358,51.511,34.007
			c-1.544,8.409-4.148,16.665-4.46,25.249c1.635,11.879,4.676,23.956,11.663,33.912c6.077,8.747,9.55,21.601,2.741,30.905
			c-6.249,8.545-6.544,19.777-12.582,28.434c-5.958,8.862-13.114,16.846-19.123,25.692c-19.535,29.178-31.827,62.701-53.411,90.6
			c1.733-0.311,3.318-0.535,4.834-0.725c-1.044,1.025-2.095,2.02-3.165,2.936c-0.061,0.051-0.104,0.119-0.163,0.17
			c-2.482,2.309-4.76,5.09-6.925,8.031c-5.783,4.848-9.455,11.166-13.633,17.287c-2.547,2.746-5.272,5.313-8.1,7.471
			c-0.731,0.172-1.457,0.357-2.196,0.512c-4.643,1.078-9.219,2.404-13.784,3.781c-2.561-1.947-4.875-4.002-6.428-5.08
			c-2.615-1.813-6.128-3.623-9.566-5.639c-2.991-4.344-6.615-7.85-11.449-10.59c-0.022-0.053-0.054-0.105-0.076-0.162
			C403.166,359.926,397.119,357.58,391.82,358.641z"/>
		<path fill="#FFFFFF" d="M458.183,104.741c-3.599-0.997-7.175-1.998-10.77-2.97c-3.589,29.382-6.419,58.841-9.446,88.285
			c-0.755,10.096-2.755,20.118-2.13,30.247c20.968,0.744,41.965,1.024,62.925,1.869c7.325-0.029,16.214,1.345,21.148-5.384
			c-23.294-5.406-46.842-9.472-70.288-14.132c-2.728-3.203-0.28-7.721-0.438-11.46C452.233,162.378,454.939,133.54,458.183,104.741
			L458.183,104.741z"/>
	</g>
</g>
<g id="Monkey">
	<path fill="#030303" d="M165.81,82.53c15.94-2.71,31.891-6.05,48.13-6.18c6.61-0.08,13.521-0.61,19.801,1.88
		c4.85,2.14,9.39,5.14,12.899,9.13c2.351,2.58,4.9,5.47,8.51,6.12c5.511,0.93,11.15-0.14,16.67,0.8
		c5.65,0.68,11.261,3.17,14.82,7.729c-4.58-0.02-8.32-2.91-12.58-4.1c-3.27-1-6.66-1.99-10.12-1.76
		c-1.819,0.19-2.779,1.86-3.84,3.12c4.43,1.67,9.65,1.05,13.561,4.12c1.609,0.93,1.97,2.8,2.369,4.46
		c-3.8-1.07-6.869-4.33-11.029-4.03c-2.851,0.3-5.721,0.88-8.36,2.03c-1.45,1.17-2.229,3.01-3.729,4.12
		c-2.36,1.12-4.9,1.82-7.181,3.11c2.521,0.88,6.28,0.6,6.59,4.06c-2.06,0.97-4.529,1.29-6.229,2.91c-2.12,2.59-2.771,5.98-3.48,9.16
		c1.2,2.72,3.21,4.92,5.511,6.76c3.649,3.05,6.779,7.47,11.81,8.21c2.7-0.52,3.7-4.16,2.18-6.27c-1.33-2.61-4.13-4.85-3.54-8.07
		c4.23-6.74,10.5-12.13,17.881-15.15c4.96-1.91,10.18,0.3,15.279-0.22c0.23,2.14,0.221,4.43,1.36,6.35
		c0.54,1.4,1.939,2.82,1.17,4.41c-2.14,3.79-8.28,3.14-9.58,7.64c-0.5,4.17,4.17,5.86,7.34,6.88c2.561-0.19,5.021,0.35,7.44,1.13
		c0.84-2.24,0.779-4.62,0.8-6.97c2.8,1.83,5.47,3.85,8.27,5.7c3.53,2.34,8.07,2.7,11.32,5.58c5.729,4.63,12.18,8.69,19.53,10.09
		c4.56,1.36,10.14,1.8,13.04,6.09c-4.21-0.86-8.17-2.74-12.521-2.99c-5.67-0.45-11.16-5.7-16.77-2.48
		c1.09,1.11,2.189,2.46,3.88,2.56c7.79,1.36,16.18,2.01,22.84,6.72c1,0.85,2.71,1.79,1.81,3.32c-5.439,1.54-10.54-1.62-15.75-2.59
		c-4.199-0.75-8.22-2.18-12.359-3.13c-3.471-0.84-7.101-0.16-10.57-0.92c-1.54-0.8-2.77-2.07-4.21-3c-2.42,0.17-5.09,2.68-7.27,0.66
		c-3.74-3.19-5.021-8.14-7.32-12.29c-3.08,2.76-2.12,7.27-1.49,10.87c2.83,9.01,2.19,18.81,5.96,27.59c2.25-0.3,4.89-2.18,6.94-0.4
		c3.149,2.86,6.54,5.68,8.52,9.54c1.73,3.68,6.891,2.84,9.18,5.93c1.45,2.82-1.8,4.9-2.84,7.19c1.15,0.41,2.221,1.52,3.551,1.09
		c4.989-0.85,7.909-5.46,12.039-7.91c4.301-2.52,9.04-4.17,13.471-6.45c5.41-2.62,9.66-7.37,15.62-8.88
		c-0.78,1.52-1.57,3.16-3.141,4.02c-5.67,3.37-10.899,7.49-16.939,10.21c-4.29,2.25-9.36,4.21-11.641,8.82
		c3.49,0.09,6.811-1.07,9.75-2.88c10.71-6.17,22.92-9,33.811-14.72c0.71,0.04,2.14,0.12,2.859,0.15c-0.43,2.89-2.479,5-4.439,6.97
		c-2.521,2.41-2.89,6.29-5.62,8.51c-3.51,3.04-8.81,0.31-12.36,3.27c0.471,1.56,1.24,3.06,1.45,4.69
		c-0.939,2.23-2.89,3.91-3.59,6.24c-0.08,1.98,0.51,3.9,1.01,5.8c5.86,0.46,9.13-5.82,14.771-6.2c3.479-0.14,5.97-2.72,8.97-4.09
		c3.23,0.01,5.55,4.19,9.03,2.66c5.189-1.86,10.609-3.99,16.229-2.58c0.15,0.45,0.46,1.35,0.61,1.8c-2.91,0.68-5.89,1.021-8.84,1.49
		c-4.65,0.74-8.311,4.12-12.82,5.26c-2.42,0.5-4.91,0.22-7.33,0.64c-3.189,0.96-5.61,3.52-8.85,4.36
		c-3.11,1.15-6.931,1.83-8.75,4.91c-0.16,1.42,0.02,2.84,0.08,4.26c1.96-1.03,3.909-2.08,5.949-2.98
		c0.601,4.859,1.65,9.57,4.311,13.77c1-0.869,2-1.75,3.02-2.6c0.11,1.58,0.19,3.16,0.25,4.75c5.4-4.98,12.57-7.17,19.011-10.37
		c2.39-3.22,3.359-7.3,5.859-10.48c2.32,1.6,1.74,4.53,2.08,6.95c3.25,0.12,6.43-0.66,9.68-0.74c-2.39,5.32-9.5,2.82-13.069,6.64
		c-1.98,2.14-4.84,2.71-7.58,3.23c-0.68,1.5-0.98,3.68-2.97,3.939c-3.391,0.72-6.971,1.311-9.681,3.68
		c-2.359,1.711-5.13,4.93-3.35,7.95c1.81,2.57,3.76,5.05,5.26,7.84c1.87,3.841,8.07,3.58,9.79-0.29c1.771,0.95,4.15,1.98,5.58-0.109
		c3.13-4.15,8.3-5.7,11.91-9.301c3.149-2.709,6.39-6.539,11.01-5.89c-1.82,2.17-4.12,3.84-6.28,5.63
		c4.67,1.021,9.21,3.66,11.24,8.17c-2.71-0.83-4.92-2.66-7.51-3.729c-3.771-0.95-7.43,1.03-10.72,2.63
		c-3.73,2.13-7.71,4.18-10.561,7.48c-2.3,2.709-2.71,8.149,1.29,9.489c7.76,2.74,15.76-0.68,23.11-3.149
		c2.279-0.62,3.58-2.681,4.96-4.41c3.09,0.68,6.399,2.01,9.53,0.689c3.88-1.279,6.81-4.99,6.739-9.14
		c-0.17-10.28-8.239-18.33-8.59-28.56c4.51,4.39,7.09,10.23,9.94,15.73c5.38,12.97,10.35,26.69,9.6,40.96
		c-0.25,3.41-3.93,3.92-6.53,4.641c0.521,3.799,2.561,7.22,2.891,11.06c0.63,4.69-1.05,9.489,0.43,14.1
		c0.73,2.681,0.71,5.47,1.13,8.2c0.9,5.13,3.36,9.83,4.62,14.85c-0.82,5.61-1.11,11.301-2.18,16.891
		c-0.91,7.311,0.81,14.699-0.101,22.02c-2.399,2.58-5.569-1.17-8.39-1.09c-20.31-1.39-40.69-1.119-61.03-1.13
		c-8.05,0.06-16.08-1.739-24.109-0.44c-13.261,1.69-26.601,2.471-39.9,3.771c-6.47,0.62-12.98,0.229-19.45,0.76
		c-11.52,1.171-23.29,1.19-34.439,4.72c-7.78,2.521-15.93,3.641-24.07,4.03c-15.02,0.72-30.08,1.65-45.109,0.78
		c-7.601-0.34-15.2,0.29-22.79,0.689c-22.381,0.891-44.82-1.16-67.17,0.86c-12.671-0.56-25.421,2.19-38.03-0.01
		c-5.15-0.729-9.41-4.29-11.53-8.97c-4.62,0.26-8.89,2.34-13.49,2.67C34.03,396,27.87,391.3,27.83,385.15
		c-0.2-7.11-0.11-14.32,1.529-21.271c1.33-5.33,1.62-10.88,3.44-16.08c1.24-3.55,1.67-7.3,2.12-11.01
		c0.649-5.19,2.75-10.021,4.16-15.021c1.16-3.979,2.229-8.029,4.26-11.67c2.81-5.319,7.1-10,8.31-16.05
		c1.13-5.11,1.891-10.7,5.69-14.63c6.57-7.13,13.74-13.66,20.84-20.25c3.46-3.22,7.61-5.67,10.74-9.25
		c2.939-3.64,3.37-8.51,5.25-12.67c0.95-2.4,2.479-4.68,2.54-7.33c-1.05-1.28-2.311-2.36-3.5-3.5c0.56-2.85,1.63-5.88,0.17-8.64
		c-0.73-2.43-3.41-2.83-5.42-3.66c0.14-2.92,0.649-5.8,1.069-8.69c-0.68-1.11-1.439-2.17-1.909-3.39c0.6-2.7,1.899-5.26,1.76-8.1
		c-1.51-1.08-3.69-1.77-4.061-3.85c-0.52-3.13,0.851-6.12,1.311-9.17c-0.26-2.32-1.07-4.58-0.99-6.94
		c-0.07-3.86,2.39-7.22,2.42-11.08c0.13-4.41,2.42-8.29,3.95-12.32c2.55-5.92,4.4-12.11,6.97-18.03
		c3.21-7.29,9.641-12.39,13.761-19.09c2.88-4.67,5.739-9.56,10.22-12.9c4.47-3.26,9.02-6.46,13.899-9.08
		c4.891-2.69,10.641-3.08,15.58-5.66C156.2,83.52,161.18,83.61,165.81,82.53z"/>
	<path fill="#FEFEFE" d="M266.89,139.14c-0.21-4.74,3.79-8.23,7.97-9.57c0.99,2.57,1.16,5.52,2.801,7.8
		c1.51,1.31,3.579,1.66,5.359,2.47c-1.39,2.3-3.359,4.15-5.609,5.59c-1.761,1.37-4.381,2.72-4.33,5.3
		c1.25,0.84,2.699,1.29,4.01,2.03c0.8,1.23,1.28,2.65,2.09,3.88c2.28,0.46,5.82-0.25,6.43,2.83c2.23,6.39-3.159,12.05-2.359,18.43
		c0.26,6.3-2.811,12.02-3.34,18.21c-0.28,1.75-0.381,3.84-2.021,4.95c-2.439,0.99-5.3-0.08-6.89-2.07
		c-3.19-3.72-3.96-8.68-4.9-13.31c-3.41-2.11-8.229-4.12-8.43-8.78c-0.061-4.74-1.82-9.18-2.65-13.8c-0.47-3.13-3.1-5.21-4.52-7.89
		c0.729-3.46,2.91-6.94,6.47-7.97c3.36-0.8,6.08,1.99,9.24,2.65C267.25,146.38,267.22,142.74,266.89,139.14z"/>
	<path fill="#FEFEFE" d="M135.49,135.65c2.949-1.34,6.25-1.54,9.449-1.35c5.57,0.36,11.431,0.4,16.471,3.16
		c4.22,2.35,8.46,4.86,12,8.17c3.02,2.94,2.27,7.78,5.199,10.77c2.58,2.84,4.851,5.93,7.07,9.06c1.69,2.57,4.771,3.65,6.7,5.94
		c1.46,3.01-0.48,6.45,0.47,9.56c1.101,2.74,3.23,4.9,4.41,7.6c1.04,2.88,0.01,6.21,1.37,8.99c1.7,1.67,4.55,2.59,4.5,5.44
		c0.57,7.84-4.89,14.63-10.86,19.07c-8,6.08-18.649,5.58-28.17,5.33c-8.14-1.13-15.17-6.06-21.68-10.77
		c-2.73-1.69-5.851-2.69-8.42-4.64c-3.38-2.56-6.101-5.9-9.62-8.28c-2.521-1.84-5.48-3.27-7.311-5.88
		c-4.3-6.11-7.159-13.32-7.819-20.78c-0.48-9.74,5.16-18.22,9.8-26.3C122.73,144.12,128.28,138.32,135.49,135.65z"/>
	<path fill="#030303" d="M143.39,147.63c4.13-2.35,8.851-4.51,13.72-3.9c3.48,1.19,6.881,3.34,9.021,6.38
		c1.64,3.88-2.54,6.44-4.88,8.77c0.96,1.81,1.93,3.63,2.819,5.49c2.62-0.24,5.37-1.24,7.94-0.2c2.37,0.89,4.78,1.66,7.28,2.06
		c0.13,0.39,0.38,1.17,0.5,1.55c-1.721,3.3-3.9,7.74-1.53,11.2c3.37,2.26,8.64,0.01,11.56,3.28c0.75,1.95,1.46,5.4-0.989,6.45
		c-3.4,0.08-5.75-2.85-8.67-4.14c-2.87,1.04-5.79,2.44-7.61,5c-1.51,1.78-2.63,4.87-5.54,4.3c-1.6,0.35-2.92-1.33-2.14-2.79
		c1.83-4.81,3.899-9.6,4.649-14.75c-2.05-0.1-4.31-0.37-6.09,0.88c-0.96,2.04-0.32,4.71-1.78,6.48c-2.88,3.11-6.689-4.22-9.26-0.29
		c-1.08,3.13,5.08,5.45,1.9,8.28c-4.181-2.32-7.54-5.85-10.851-9.22c-2.399-4.9-0.16-10.53-0.8-15.73c-3.41,1.7-4.34,5.64-6.78,8.29
		c-2.31,3.03-5.699,5.37-6.97,9.09c-0.63,3.21,0.13,7.49-3.38,9.26c-1.26-0.53-2.53-1.07-3.78-1.61c-1.39,1.45-2.68,2.98-3.95,4.521
		c-4.699-13.23-0.079-29.72,11.83-37.62C134.63,155.5,138.16,150.48,143.39,147.63z"/>
	<path fill="#FEFEFE" d="M306.76,145.91c4.96-1.46,9.479,2.23,13.25,4.97c2.149,1.25,2.14,3.69,1.68,5.87
		c-1.63-1.6-2.97-3.47-4.6-5.06c-2.48-0.84-5.37,0.23-7.67-1.28C307.78,149.48,305.81,148.07,306.76,145.91z"/>
	<path fill="#030303" d="M140.38,193.39c3.72-1.46,7.979-0.44,11.68,0.64c1.75,1.88,2.83,4.45,5.26,5.63
		c3.44,1.85,6.801,4.04,10.601,5.07c4.72,1.31,9.05-2.75,13.729-1.33c1.62,0.85,3.44,2.51,2.5,4.52c-0.819,0.89-1.79,1.71-2.96,2.08
		c-4.97,1.27-10.34,1.05-15.029,3.33c-1.36,0.54-2.71,1.31-4.21,1.23c-4.261-1.91-5.261-7.78-9.99-8.9
		c-4.49-1.05-9.431-2.5-12.16-6.53C138.59,197.4,138.1,194.48,140.38,193.39z"/>
	<path fill="#FEFEFE" d="M341.67,247.8c2.399-2,5.5-2.71,8.52-3.149c-0.8,3.08-2.28,5.92-4.28,8.39
		c-4.39,5.62-6.71,12.851-6.34,19.979c0.521,7.69,10.84,11.521,16.811,7.17c4.33,2.98,9.6,4.121,14.779,4.341
		c2.641,0.13,5.88,0.6,7.04,3.38c1.92,4.46,1.82,9.68-0.22,14.09c-3.62,8.37-7.14,17.63-14.979,22.99
		c-4.24,2.65-8.801,5.52-13.961,5.56c-6.22-0.569-11.81-3.58-17.51-5.87c-8.5-3.449-16.069-8.699-24.3-12.67
		c-4.31-2.29-8.99-4.24-12.31-7.939c-3.271-3.74-7.33-6.79-11.86-8.82c0.36-1.15,0.72-2.29,1.07-3.439
		c-0.72-0.341-2.17-1.021-2.9-1.36c0.54-0.7,1.61-2.101,2.15-2.8c-1.94-1.67-4.46-2.021-6.9-2.381c-0.05-1.59,0.7-3.35-0.029-4.83
		c-1.351-1.02-3.04-1.459-4.54-2.199c4.529-4.61,11.739-5.29,15.71-10.59c-0.46-0.601-1.391-1.78-1.86-2.37
		c0.81-0.79,1.61-1.58,2.42-2.36c-0.59-1.2-1.16-2.39-1.72-3.58c2.149-0.949,4.439-1.5,6.77-1.79c3.681-0.479,7.06-2.17,10.73-2.7
		c1.81,0.15,3.569,0.811,5.409,0.791c1.04-0.73,2.07-1.49,3.07-2.291c4.78,2.41,7.74,7.131,12.07,10.131
		c2.22,1.569,5.13,0.629,6.95-1.09C336.15,258.46,336.659,251.43,341.67,247.8z"/>
</g>
</svg>
