<?xml version="1.0" encoding="UTF-8" ?>
<!DOCTYPE svg PUBLIC "-//W3C//DTD SVG 1.1//EN" "http://www.w3.org/Graphics/SVG/1.1/DTD/svg11.dtd">
<svg width="480pt" height="480pt" viewBox="0 0 480 480" version="1.1" xmlns="http://www.w3.org/2000/svg">
<path fill="#fefefe" d=" M 0.00 0.00 L 480.00 0.00 L 480.00 480.00 L 0.00 480.00 L 0.00 0.00 Z" />
<path fill="#030303" d=" M 165.81 82.53 C 181.75 79.82 197.70 76.48 213.94 76.35 C 220.55 76.27 227.46 75.74 233.74 78.23 C 238.59 80.37 243.13 83.37 246.64 87.36 C 248.99 89.94 251.54 92.83 255.15 93.48 C 260.66 94.41 266.30 93.34 271.82 94.28 C 277.47 94.96 283.08 97.45 286.64 102.01 C 282.06 101.99 278.32 99.10 274.06 97.91 C 270.79 96.91 267.40 95.92 263.94 96.15 C 262.12 96.34 261.16 98.01 260.10 99.27 C 264.53 100.94 269.75 100.32 273.66 103.39 C 275.27 104.32 275.63 106.19 276.03 107.85 C 272.23 106.78 269.16 103.52 265.00 103.82 C 262.15 104.12 259.28 104.70 256.64 105.85 C 255.19 107.02 254.41 108.86 252.91 109.97 C 250.55 111.09 248.01 111.79 245.73 113.08 C 248.25 113.96 252.01 113.68 252.32 117.14 C 250.26 118.11 247.79 118.43 246.09 120.05 C 243.97 122.64 243.32 126.03 242.61 129.21 C 243.81 131.93 245.82 134.13 248.12 135.97 C 251.77 139.02 254.90 143.44 259.93 144.18 C 262.63 143.66 263.63 140.02 262.11 137.91 C 260.78 135.30 257.98 133.06 258.57 129.84 C 262.80 123.10 269.07 117.71 276.45 114.69 C 281.41 112.78 286.63 114.99 291.73 114.47 C 291.96 116.61 291.95 118.90 293.09 120.82 C 293.63 122.22 295.03 123.64 294.26 125.23 C 292.12 129.02 285.98 128.37 284.68 132.87 C 284.18 137.04 288.85 138.73 292.02 139.75 C 294.58 139.56 297.04 140.10 299.46 140.88 C 300.30 138.64 300.24 136.26 300.26 133.91 C 303.06 135.74 305.73 137.76 308.53 139.61 C 312.06 141.95 316.60 142.31 319.85 145.19 C 325.58 149.82 332.03 153.88 339.38 155.28 C 343.94 156.64 349.52 157.08 352.42 161.37 C 348.21 160.51 344.25 158.63 339.90 158.38 C 334.23 157.93 328.74 152.68 323.13 155.90 C 324.22 157.01 325.32 158.36 327.01 158.46 C 334.80 159.82 343.19 160.47 349.85 165.18 C 350.85 166.03 352.56 166.97 351.66 168.50 C 346.22 170.04 341.12 166.88 335.91 165.91 C 331.71 165.16 327.69 163.73 323.55 162.78 C 320.08 161.94 316.45 162.62 312.98 161.86 C 311.44 161.06 310.21 159.79 308.77 158.86 C 306.35 159.03 303.68 161.54 301.50 159.52 C 297.76 156.33 296.48 151.38 294.18 147.23 C 291.10 149.99 292.06 154.50 292.69 158.10 C 295.52 167.11 294.88 176.91 298.65 185.69 C 300.90 185.39 303.54 183.51 305.59 185.29 C 308.74 188.15 312.13 190.97 314.11 194.83 C 315.84 198.51 321.00 197.67 323.29 200.76 C 324.74 203.58 321.49 205.66 320.45 207.95 C 321.60 208.36 322.67 209.47 324.00 209.04 C 328.99 208.19 331.91 203.58 336.04 201.13 C 340.34 198.61 345.08 196.96 349.51 194.68 C 354.92 192.06 359.17 187.31 365.13 185.80 C 364.35 187.32 363.56 188.96 361.99 189.82 C 356.32 193.19 351.09 197.31 345.05 200.03 C 340.76 202.28 335.69 204.24 333.41 208.85 C 336.90 208.94 340.22 207.78 343.16 205.97 C 353.87 199.80 366.08 196.97 376.97 191.25 C 377.68 191.29 379.11 191.37 379.83 191.40 C 379.40 194.29 377.35 196.40 375.39 198.37 C 372.87 200.78 372.50 204.66 369.77 206.88 C 366.26 209.92 360.96 207.19 357.41 210.15 C 357.88 211.71 358.65 213.21 358.86 214.84 C 357.92 217.07 355.97 218.75 355.27 221.08 C 355.19 223.06 355.78 224.98 356.28 226.88 C 362.14 227.34 365.41 221.06 371.05 220.68 C 374.53 220.54 377.02 217.96 380.02 216.59 C 383.25 216.60 385.57 220.78 389.05 219.25 C 394.24 217.39 399.66 215.26 405.28 216.67 C 405.43 217.12 405.74 218.02 405.89 218.47 C 402.98 219.15 400.00 219.49 397.05 219.96 C 392.40 220.70 388.74 224.08 384.23 225.22 C 381.81 225.72 379.32 225.44 376.90 225.86 C 373.71 226.82 371.29 229.38 368.05 230.22 C 364.94 231.37 361.12 232.05 359.30 235.13 C 359.14 236.55 359.32 237.97 359.38 239.39 C 361.34 238.36 363.29 237.31 365.33 236.41 C 365.93 241.27 366.98 245.98 369.64 250.18 C 370.64 249.31 371.64 248.43 372.66 247.58 C 372.77 249.16 372.85 250.74 372.91 252.33 C 378.31 247.35 385.48 245.16 391.92 241.96 C 394.31 238.74 395.28 234.66 397.78 231.48 C 400.10 233.08 399.52 236.01 399.86 238.43 C 403.11 238.55 406.29 237.77 409.54 237.69 C 407.15 243.01 400.04 240.51 396.47 244.33 C 394.49 246.47 391.63 247.04 388.89 247.56 C 388.21 249.06 387.91 251.24 385.92 251.50 C 382.53 252.22 378.95 252.81 376.24 255.18 C 373.88 256.89 371.11 260.11 372.89 263.13 C 374.70 265.70 376.65 268.18 378.15 270.97 C 380.02 274.81 386.22 274.55 387.94 270.68 C 389.71 271.63 392.09 272.66 393.52 270.57 C 396.65 266.42 401.82 264.87 405.43 261.27 C 408.58 258.56 411.82 254.73 416.44 255.38 C 414.62 257.55 412.32 259.22 410.16 261.01 C 414.83 262.03 419.37 264.67 421.40 269.18 C 418.69 268.35 416.48 266.52 413.89 265.45 C 410.12 264.50 406.46 266.48 403.17 268.08 C 399.44 270.21 395.46 272.26 392.61 275.56 C 390.31 278.27 389.90 283.71 393.90 285.05 C 401.66 287.79 409.66 284.37 417.01 281.90 C 419.29 281.28 420.59 279.22 421.97 277.49 C 425.06 278.17 428.37 279.50 431.50 278.18 C 435.38 276.90 438.31 273.19 438.24 269.04 C 438.07 258.76 430.00 250.71 429.65 240.48 C 434.16 244.87 436.74 250.71 439.59 256.21 C 444.97 269.18 449.94 282.90 449.19 297.17 C 448.94 300.58 445.26 301.09 442.66 301.81 C 443.18 305.61 445.22 309.03 445.55 312.87 C 446.18 317.56 444.50 322.36 445.98 326.97 C 446.71 329.65 446.69 332.44 447.11 335.17 C 448.01 340.30 450.47 345.00 451.73 350.02 C 450.91 355.63 450.62 361.32 449.55 366.91 C 448.64 374.22 450.36 381.61 449.45 388.93 C 447.05 391.51 443.88 387.76 441.06 387.84 C 420.75 386.45 400.37 386.72 380.03 386.71 C 371.98 386.77 363.95 384.97 355.92 386.27 C 342.66 387.96 329.32 388.74 316.02 390.04 C 309.55 390.66 303.04 390.27 296.57 390.80 C 285.05 391.97 273.28 391.99 262.13 395.52 C 254.35 398.04 246.20 399.16 238.06 399.55 C 223.04 400.27 207.98 401.20 192.95 400.33 C 185.35 399.99 177.75 400.62 170.16 401.02 C 147.78 401.91 125.34 399.86 102.99 401.88 C 90.32 401.32 77.57 404.07 64.96 401.87 C 59.81 401.14 55.55 397.58 53.43 392.90 C 48.81 393.16 44.54 395.24 39.94 395.57 C 34.03 396.00 27.87 391.30 27.83 385.15 C 27.63 378.04 27.72 370.83 29.36 363.88 C 30.69 358.55 30.98 353.00 32.80 347.80 C 34.04 344.25 34.47 340.50 34.92 336.79 C 35.57 331.60 37.67 326.77 39.08 321.77 C 40.24 317.79 41.31 313.74 43.34 310.10 C 46.15 304.78 50.44 300.10 51.65 294.05 C 52.78 288.94 53.54 283.35 57.34 279.42 C 63.91 272.29 71.08 265.76 78.18 259.17 C 81.64 255.95 85.79 253.50 88.92 249.92 C 91.86 246.28 92.29 241.41 94.17 237.25 C 95.12 234.85 96.65 232.57 96.71 229.92 C 95.66 228.64 94.40 227.56 93.21 226.42 C 93.77 223.57 94.84 220.54 93.38 217.78 C 92.65 215.35 89.97 214.95 87.96 214.12 C 88.10 211.20 88.61 208.32 89.03 205.43 C 88.35 204.32 87.59 203.26 87.12 202.04 C 87.72 199.34 89.02 196.78 88.88 193.94 C 87.37 192.86 85.19 192.17 84.82 190.09 C 84.30 186.96 85.67 183.97 86.13 180.92 C 85.87 178.60 85.06 176.34 85.14 173.98 C 85.07 170.12 87.53 166.76 87.56 162.90 C 87.69 158.49 89.98 154.61 91.51 150.58 C 94.06 144.66 95.91 138.47 98.48 132.55 C 101.69 125.26 108.12 120.16 112.24 113.46 C 115.12 108.79 117.98 103.90 122.46 100.56 C 126.93 97.30 131.48 94.10 136.36 91.48 C 141.25 88.79 147.00 88.40 151.94 85.82 C 156.20 83.52 161.18 83.61 165.81 82.53 Z" />
<path fill="#fefefe" d=" M 266.89 139.14 C 266.68 134.40 270.68 130.91 274.86 129.57 C 275.85 132.14 276.02 135.09 277.66 137.37 C 279.17 138.68 281.24 139.03 283.02 139.84 C 281.63 142.14 279.66 143.99 277.41 145.43 C 275.65 146.80 273.03 148.15 273.08 150.73 C 274.33 151.57 275.78 152.02 277.09 152.76 C 277.89 153.99 278.37 155.41 279.18 156.64 C 281.46 157.10 285.00 156.39 285.61 159.47 C 287.84 165.86 282.45 171.52 283.25 177.90 C 283.51 184.20 280.44 189.92 279.91 196.11 C 279.63 197.86 279.53 199.95 277.89 201.06 C 275.45 202.05 272.59 200.98 271.00 198.99 C 267.81 195.27 267.04 190.31 266.10 185.68 C 262.69 183.57 257.87 181.56 257.67 176.90 C 257.61 172.16 255.85 167.72 255.02 163.10 C 254.55 159.97 251.92 157.89 250.50 155.21 C 251.23 151.75 253.41 148.27 256.97 147.24 C 260.33 146.44 263.05 149.23 266.21 149.89 C 267.25 146.38 267.22 142.74 266.89 139.14 Z" />
<path fill="#fefefe" d=" M 135.49 135.65 C 138.44 134.31 141.74 134.11 144.94 134.30 C 150.51 134.66 156.37 134.70 161.41 137.46 C 165.63 139.81 169.87 142.32 173.41 145.63 C 176.43 148.57 175.68 153.41 178.61 156.40 C 181.19 159.24 183.46 162.33 185.68 165.46 C 187.37 168.03 190.45 169.11 192.38 171.40 C 193.84 174.41 191.90 177.85 192.85 180.96 C 193.95 183.70 196.08 185.86 197.26 188.56 C 198.30 191.44 197.27 194.77 198.63 197.55 C 200.33 199.22 203.18 200.14 203.13 202.99 C 203.70 210.83 198.24 217.62 192.27 222.06 C 184.27 228.14 173.62 227.64 164.10 227.39 C 155.96 226.26 148.93 221.33 142.42 216.62 C 139.69 214.93 136.57 213.93 134.00 211.98 C 130.62 209.42 127.90 206.08 124.38 203.70 C 121.86 201.86 118.90 200.43 117.07 197.82 C 112.77 191.71 109.91 184.50 109.25 177.04 C 108.77 167.30 114.41 158.82 119.05 150.74 C 122.73 144.12 128.28 138.32 135.49 135.65 Z" />
<path fill="#030303" d=" M 143.39 147.63 C 147.52 145.28 152.24 143.12 157.11 143.73 C 160.59 144.92 163.99 147.07 166.13 150.11 C 167.77 153.99 163.59 156.55 161.25 158.88 C 162.21 160.69 163.18 162.51 164.07 164.37 C 166.69 164.13 169.44 163.13 172.01 164.17 C 174.38 165.06 176.79 165.83 179.29 166.23 C 179.42 166.62 179.67 167.40 179.79 167.78 C 178.07 171.08 175.89 175.52 178.26 178.98 C 181.63 181.24 186.90 178.99 189.82 182.26 C 190.57 184.21 191.28 187.66 188.83 188.71 C 185.43 188.79 183.08 185.86 180.16 184.57 C 177.29 185.61 174.37 187.01 172.55 189.57 C 171.04 191.35 169.92 194.44 167.01 193.87 C 165.41 194.22 164.09 192.54 164.87 191.08 C 166.70 186.27 168.77 181.48 169.52 176.33 C 167.47 176.23 165.21 175.96 163.43 177.21 C 162.47 179.25 163.11 181.92 161.65 183.69 C 158.77 186.80 154.96 179.47 152.39 183.40 C 151.31 186.53 157.47 188.85 154.29 191.68 C 150.11 189.36 146.75 185.83 143.44 182.46 C 141.04 177.56 143.28 171.93 142.64 166.73 C 139.23 168.43 138.30 172.37 135.86 175.02 C 133.55 178.05 130.16 180.39 128.89 184.11 C 128.26 187.32 129.02 191.60 125.51 193.37 C 124.25 192.84 122.98 192.30 121.73 191.76 C 120.34 193.21 119.05 194.74 117.78 196.28 C 113.08 183.05 117.70 166.56 129.61 158.66 C 134.63 155.50 138.16 150.48 143.39 147.63 Z" />
<path fill="#fefefe" d=" M 306.76 145.91 C 311.72 144.45 316.24 148.14 320.01 150.88 C 322.16 152.13 322.15 154.57 321.69 156.75 C 320.06 155.15 318.72 153.28 317.09 151.69 C 314.61 150.85 311.72 151.92 309.42 150.41 C 307.78 149.48 305.81 148.07 306.76 145.91 Z" />
<path fill="#030303" d=" M 140.38 193.39 C 144.10 191.93 148.36 192.95 152.06 194.03 C 153.81 195.91 154.89 198.48 157.32 199.66 C 160.76 201.51 164.12 203.70 167.92 204.73 C 172.64 206.04 176.97 201.98 181.65 203.40 C 183.27 204.25 185.09 205.91 184.15 207.92 C 183.33 208.81 182.36 209.63 181.19 210.00 C 176.22 211.27 170.85 211.05 166.16 213.33 C 164.80 213.87 163.45 214.64 161.95 214.56 C 157.69 212.65 156.69 206.78 151.96 205.66 C 147.47 204.61 142.53 203.16 139.80 199.13 C 138.59 197.40 138.10 194.48 140.38 193.39 Z" />
<path fill="#fefefe" d=" M 341.67 247.80 C 344.07 245.80 347.17 245.09 350.19 244.65 C 349.39 247.73 347.91 250.57 345.91 253.04 C 341.52 258.66 339.20 265.89 339.57 273.02 C 340.09 280.71 350.41 284.54 356.38 280.19 C 360.71 283.17 365.98 284.31 371.16 284.53 C 373.80 284.66 377.04 285.13 378.20 287.91 C 380.12 292.37 380.02 297.59 377.98 302.00 C 374.36 310.37 370.84 319.63 363.00 324.99 C 358.76 327.64 354.20 330.51 349.04 330.55 C 342.82 329.98 337.23 326.97 331.53 324.68 C 323.03 321.23 315.46 315.98 307.23 312.01 C 302.92 309.72 298.24 307.77 294.92 304.07 C 291.65 300.33 287.59 297.28 283.06 295.25 C 283.42 294.10 283.78 292.96 284.13 291.81 C 283.41 291.47 281.96 290.79 281.23 290.45 C 281.77 289.75 282.84 288.35 283.38 287.65 C 281.44 285.98 278.92 285.63 276.48 285.27 C 276.43 283.68 277.18 281.92 276.45 280.44 C 275.10 279.42 273.41 278.98 271.91 278.24 C 276.44 273.63 283.65 272.95 287.62 267.65 C 287.16 267.05 286.23 265.87 285.76 265.28 C 286.57 264.49 287.37 263.70 288.18 262.92 C 287.59 261.72 287.02 260.53 286.46 259.34 C 288.61 258.39 290.90 257.84 293.23 257.55 C 296.91 257.07 300.29 255.38 303.96 254.85 C 305.77 255.00 307.53 255.66 309.37 255.64 C 310.41 254.91 311.44 254.15 312.44 253.35 C 317.22 255.76 320.18 260.48 324.51 263.48 C 326.73 265.05 329.64 264.11 331.46 262.39 C 336.15 258.46 336.66 251.43 341.67 247.80 Z" />
</svg>
